HIERARCHY
ROOT Hips
{
	OFFSET 0.000000 0.000000 0.000000
	CHANNELS 6 Xposition Yposition Zposition Xrotation Yrotation Zrotation
	JOINT LeftUpLeg_virtual
	{
		OFFSET 0.000000 0.000000 0.000000
		CHANNELS 3 Xrotation Yrotation Zrotation
		JOINT LeftUpLeg
		{
			OFFSET 13.026900 -6.336304 -1.092800
			CHANNELS 3 Xrotation Yrotation Zrotation
			JOINT LeftLeg
			{
				OFFSET 0.524474 -46.096886 9.782700
				CHANNELS 3 Xrotation Yrotation Zrotation
				JOINT LeftFoot
				{
					OFFSET -0.524474 -53.427422 -12.948200
					CHANNELS 3 Xrotation Yrotation Zrotation
					JOINT LeftToeBase
					{
						OFFSET 0.192200 -14.009700 16.364100
						CHANNELS 3 Xrotation Yrotation Zrotation
						JOINT LeftToe_End
						{
							OFFSET -1.784700 -0.561700 9.474800
							CHANNELS 3 Xrotation Yrotation Zrotation
							End Site
							{
								OFFSET 0 0 0
							}
						}
					}
				}
			}
		}
	}
	JOINT RightUpLeg_virtual
	{
		OFFSET 0.000000 0.000000 0.000000
		CHANNELS 3 Xrotation Yrotation Zrotation
		JOINT RightUpLeg
		{
			OFFSET -12.883000 -6.336304 -1.092800
			CHANNELS 3 Xrotation Yrotation Zrotation
			JOINT RightLeg
			{
				OFFSET -0.524587 -46.096825 9.782800
				CHANNELS 3 Xrotation Yrotation Zrotation
				JOINT RightFoot
				{
					OFFSET 0.524587 -53.427383 -12.948300
					CHANNELS 3 Xrotation Yrotation Zrotation
					JOINT RightToeBase
					{
						OFFSET -0.192200 -14.009700 16.364100
						CHANNELS 3 Xrotation Yrotation Zrotation
						JOINT RightToe_End
						{
							OFFSET 1.784700 -0.561700 9.474800
							CHANNELS 3 Xrotation Yrotation Zrotation
							End Site
							{
								OFFSET 0 0 0
							}
						}
					}
				}
			}
		}
	}
	JOINT Spine_virtual
	{
		OFFSET 0.000000 0.000000 0.000000
		CHANNELS 3 Xrotation Yrotation Zrotation
		JOINT Spine
		{
			OFFSET 0.072000 7.257294 -0.789700
			CHANNELS 3 Xrotation Yrotation Zrotation
			JOINT Spine1
			{
				OFFSET 0.000000 12.508769 -0.658067
				CHANNELS 3 Xrotation Yrotation Zrotation
				JOINT Spine1_split
				{
					OFFSET 0.000000 12.508769 -0.658067
					CHANNELS 3 Xrotation Yrotation Zrotation
					JOINT Spine2
					{
						OFFSET 0.000000 12.508769 -0.658067
						CHANNELS 3 Xrotation Yrotation Zrotation
						JOINT Neck_virtual
						{
							OFFSET 0.000000 0.000000 0.000000
							CHANNELS 3 Xrotation Yrotation Zrotation
							JOINT Neck
							{
								OFFSET 0.000000 14.033295 7.520400
								CHANNELS 3 Xrotation Yrotation Zrotation
								JOINT Head
								{
									OFFSET 0.000000 8.198502 5.703100
									CHANNELS 3 Xrotation Yrotation Zrotation
									JOINT HeadTop_End
									{
										OFFSET 0.000000 17.760803 13.332701
										CHANNELS 3 Xrotation Yrotation Zrotation
										End Site
										{
											OFFSET 0 0 0
										}
									}
								}
							}
						}
						JOINT LeftShoulder_virtual
						{
							OFFSET 0.000000 0.000000 0.000000
							CHANNELS 3 Xrotation Yrotation Zrotation
							JOINT LeftShoulder
							{
								OFFSET 6.292450 5.785301 -0.669000
								CHANNELS 3 Xrotation Yrotation Zrotation
								JOINT LeftShoulder_split
								{
									OFFSET 6.292450 5.785301 -0.669000
									CHANNELS 3 Xrotation Yrotation Zrotation
									JOINT LeftArm
									{
										OFFSET 13.907140 -6.093903 1.965100
										CHANNELS 3 Xrotation Yrotation Zrotation
										JOINT LeftForeArm
										{
											OFFSET 34.140198 0.000000 0.000000
											CHANNELS 3 Xrotation Yrotation Zrotation
											JOINT LeftHand
											{
												OFFSET 40.960209 0.000000 0.000000
												CHANNELS 3 Xrotation Yrotation Zrotation
												End Site
												{
													OFFSET 0 0 0
												}
											}
										}
									}
								}
							}
						}
						JOINT RightShoulder_virtual
						{
							OFFSET 0.000000 0.000000 0.000000
							CHANNELS 3 Xrotation Yrotation Zrotation
							JOINT RightShoulder
							{
								OFFSET -6.292450 5.785301 -0.669000
								CHANNELS 3 Xrotation Yrotation Zrotation
								JOINT RightShoulder_split
								{
									OFFSET -6.292450 5.785301 -0.669000
									CHANNELS 3 Xrotation Yrotation Zrotation
									JOINT RightArm
									{
										OFFSET -13.907140 -6.093903 1.965100
										CHANNELS 3 Xrotation Yrotation Zrotation
										JOINT RightForeArm
										{
											OFFSET -34.140198 0.000000 0.000000
											CHANNELS 3 Xrotation Yrotation Zrotation
											JOINT RightHand
											{
												OFFSET -40.960209 0.000000 0.000000
												CHANNELS 3 Xrotation Yrotation Zrotation
												End Site
												{
													OFFSET 0 0 0
												}
											}
										}
									}
								}
							}
						}
					}
				}
			}
		}
	}
}
MOTION
Frames: 7
Frame Time: 0.03333333
0.975228 118.468246 -1.172825 0.000000 0.000000 0.000000 3.416129 -31.310817 2.273527 -15.398381 16.001303 12.561463 14.371042 13.679224 -2.038590 -1.735618 -3.308589 -6.809134 1.390341 0.249159 -0.474533 0.000000 0.000000 0.000000 3.925705 -30.282047 2.217045 -12.216304 -1.280233 -6.752383 9.512181 7.803481 -1.250673 -1.651497 -0.028722 4.143558 -2.939844 -0.388255 0.035245 0.000000 0.000000 0.000000 3.248212 -29.725618 1.143066 7.456490 -0.028193 -0.989782 1.381208 -0.821177 2.356454 0.455255 0.197510 0.637995 0.000000 0.000000 0.000000 1.054831 -0.394739 2.514552 -4.585118 17.724983 -7.191160 -5.909302 15.488757 0.267245 0.000000 0.000000 0.000000 1.239213 -0.626222 2.616417 0.947137 -10.336664 0.261608 1.376779 -0.153728 0.346226 -59.795048 1.266922 -39.402535 9.516801 -60.212195 11.907338 0.000000 0.000000 0.000000 0.818031 -0.462279 2.671926 4.786594 6.066582 7.264903 -0.686512 -0.100891 -1.540007 0.098558 0.506677 63.440716 12.363041 23.392459 -3.851726 0.000000 0.000000 0.000000 
0.963387 118.488014 -1.094196 0.000000 0.000000 0.000000 3.525460 -31.269265 2.289956 -15.455707 15.955313 12.574905 14.337245 13.674040 -1.996948 -1.754458 -3.285246 -6.835210 1.358785 0.251157 -0.479837 0.000000 0.000000 0.000000 4.039290 -30.229533 2.223452 -12.243149 -1.209674 -6.729039 9.587727 7.855466 -1.271265 -1.605590 0.009285 4.188590 -2.932501 -0.398320 0.032746 0.000000 0.000000 0.000000 3.369809 -29.658679 1.158409 7.425287 -0.023465 -1.009510 1.361024 -0.837727 2.362679 0.525012 0.161664 0.708049 0.000000 0.000000 0.000000 1.045110 -0.400063 2.534804 -4.538010 17.885059 -7.254522 -5.888314 15.527230 0.295998 0.000000 0.000000 0.000000 1.214485 -0.628636 2.632935 0.928551 -10.227689 0.141884 1.480122 -0.244143 0.410505 -59.727914 1.332447 -39.328181 9.674736 -60.239734 11.983256 0.000000 0.000000 0.000000 0.811194 -0.465321 2.685065 4.733446 6.119184 7.408598 -0.862163 -0.157198 -1.502771 0.175470 0.550048 63.410827 12.352064 23.166940 -3.841858 0.000000 0.000000 0.000000 
0.929035 118.482613 -1.049908 0.000000 0.000000 0.000000 3.711858 -31.166905 2.326657 -15.580920 15.805179 12.594213 14.330174 13.664163 -1.973552 -1.788972 -3.249551 -6.909434 1.330268 0.249767 -0.472852 0.000000 0.000000 0.000000 4.212366 -30.149268 2.249537 -12.323143 -1.156522 -6.694402 9.701012 7.898012 -1.288506 -1.633504 0.030046 4.203882 -2.874614 -0.405644 0.034864 0.000000 0.000000 0.000000 3.590969 -29.587300 1.208827 7.399938 -0.006236 -1.029867 1.327730 -0.830099 2.365568 0.559331 0.092698 0.741147 0.000000 0.000000 0.000000 1.035897 -0.378576 2.544018 -4.435728 18.214094 -7.363931 -5.947990 15.735641 0.407647 0.000000 0.000000 0.000000 1.192937 -0.605119 2.638476 0.904002 -10.038183 0.019987 1.567079 -0.260701 0.496682 -59.703414 1.389263 -39.266799 9.754537 -60.368367 11.982309 0.000000 0.000000 0.000000 0.797658 -0.445691 2.686900 4.690669 6.191299 7.580275 -0.958884 -0.221863 -1.538603 0.263330 0.573902 63.382093 12.313115 22.946261 -3.845907 0.000000 0.000000 0.000000 
0.868452 118.445740 -1.030331 0.000000 0.000000 0.000000 3.950164 -30.974939 2.377957 -15.774336 15.577872 12.618446 14.354771 13.660883 -1.975010 -1.840522 -3.201973 -7.003053 1.327467 0.244941 -0.457664 0.000000 0.000000 0.000000 4.426853 -30.031662 2.294837 -12.458204 -1.128597 -6.659875 9.825197 7.934683 -1.300827 -1.717380 0.037981 4.209886 -2.788153 -0.407559 0.037666 0.000000 0.000000 0.000000 3.878902 -29.498450 1.291063 7.376259 0.020188 -1.044143 1.281714 -0.798760 2.363487 0.507043 0.007719 0.725326 0.000000 0.000000 0.000000 1.024901 -0.336134 2.545495 -4.266670 18.719496 -7.555006 -6.103766 16.128203 0.568558 0.000000 0.000000 0.000000 1.176313 -0.561744 2.633769 0.881116 -9.794601 -0.080309 1.626336 -0.159418 0.611530 -59.742647 1.435380 -39.251523 9.735858 -60.511515 11.889639 0.000000 0.000000 0.000000 0.779110 -0.407474 2.679219 4.657052 6.290843 7.745201 -0.960995 -0.254872 -1.647321 0.348278 0.590745 63.379115 12.253879 22.720397 -3.860252 0.000000 0.000000 0.000000 
0.784459 118.379196 -1.029491 0.000000 0.000000 0.000000 4.215685 -30.685168 2.441034 -16.028755 15.290569 12.644894 14.406920 13.675453 -2.003839 -1.904801 -3.141732 -7.092552 1.351647 0.238595 -0.435595 0.000000 0.000000 0.000000 4.670657 -29.839491 2.358126 -12.623440 -1.130085 -6.633128 9.946751 7.968322 -1.308722 -1.843766 0.037123 4.217639 -2.701917 -0.404434 0.041958 0.000000 0.000000 0.000000 4.209225 -29.351727 1.396972 7.344239 0.050932 -1.051625 1.231630 -0.749621 2.355332 0.429569 -0.110816 0.724407 0.000000 0.000000 0.000000 1.011328 -0.279595 2.539853 -4.013447 19.410552 -7.873232 -6.363116 16.722195 0.746078 0.000000 0.000000 0.000000 1.165729 -0.504754 2.623128 0.867736 -9.526184 -0.145662 1.660585 0.020827 0.728604 -59.866881 1.506943 -39.309275 9.621808 -60.602834 11.706928 0.000000 0.000000 0.000000 0.762049 -0.356891 2.664966 4.630866 6.417212 7.867024 -0.904697 -0.232979 -1.790076 0.437740 0.588838 63.412658 12.181858 22.510087 -3.880756 0.000000 0.000000 0.000000 
0.668715 118.286209 -1.048008 0.000000 0.000000 0.000000 4.497339 -30.295386 2.519806 -16.320285 14.964523 12.670301 14.474382 13.704062 -2.058692 -1.963528 -3.079208 -7.168180 1.380103 0.231009 -0.405678 0.000000 0.000000 0.000000 4.926544 -29.532669 2.435145 -12.793265 -1.169118 -6.613839 10.055388 7.994307 -1.315252 -2.007552 0.019629 4.216963 -2.617335 -0.396997 0.049721 0.000000 0.000000 0.000000 4.556689 -29.107592 1.517612 7.292693 0.083997 -1.053821 1.184701 -0.690453 2.339509 0.361503 -0.278716 0.755032 0.000000 0.000000 0.000000 0.995885 -0.215125 2.528314 -3.656289 20.290081 -8.364641 -6.726256 17.543612 0.901181 0.000000 0.000000 0.000000 1.166090 -0.440985 2.610082 0.868326 -9.264852 -0.161130 1.683972 0.165025 0.794110 -60.117754 1.604119 -39.477380 9.441915 -60.628960 11.461147 0.000000 0.000000 0.000000 0.751746 -0.300028 2.646171 4.610624 6.568049 7.918179 -0.802354 -0.180176 -1.924505 0.521661 0.525479 63.490303 12.107478 22.336122 -3.905965 0.000000 0.000000 0.000000 
0.520330 118.174202 -1.074642 0.000000 0.000000 0.000000 4.779231 -29.801434 2.613480 -16.636797 14.604066 12.695434 14.546421 13.739707 -2.133550 -1.996681 -3.027791 -7.233634 1.400536 0.221946 -0.371445 0.000000 0.000000 0.000000 5.183159 -29.101274 2.519361 -12.954193 -1.266554 -6.598112 10.158982 7.990029 -1.325201 -2.208000 -0.032123 4.187025 -2.522483 -0.388043 0.064418 0.000000 0.000000 0.000000 4.909742 -28.745077 1.643295 7.218617 0.119205 -1.055877 1.151260 -0.629729 2.312204 0.333811 -0.433332 0.799200 0.000000 0.000000 0.000000 0.988734 -0.148956 2.511456 -3.175177 21.356139 -9.054157 -7.188889 18.587356 1.016487 0.000000 0.000000 0.000000 1.176967 -0.375166 2.594320 0.882897 -9.035441 -0.139210 1.707741 0.223245 0.833034 -60.509001 1.712038 -39.767103 9.263401 -60.626282 11.210301 0.000000 0.000000 0.000000 0.744456 -0.241774 2.622513 4.597373 6.734466 7.896600 -0.667234 -0.131021 -2.015905 0.608944 0.354839 63.598022 12.039451 22.233656 -3.929613 0.000000 0.000000 0.000000 
